{
    "accessors" : [
        {
            "bufferView" : 0,
            "componentType" : 5123,
            "count" : 468,
            "max" : [
                279
            ],
            "min" : [
                0
            ],
            "type" : "SCALAR"
        },
        {
            "bufferView" : 1,
            "componentType" : 5126,
            "count" : 280,
            "max" : [
                1.0,
                1.0,
                1.0
            ],
            "min" : [
                -1.0,
                0.6673785448074341,
                -1.0
            ],
            "type" : "VEC3"
        },
        {
            "bufferView" : 2,
            "componentType" : 5126,
            "count" : 280,
            "max" : [
                0.6385186314582825,
                1.0,
                0.638518750667572
            ],
            "min" : [
                -0.6385189294815063,
                -1.0,
                -0.638518750667572
            ],
            "type" : "VEC3"
        },
        {
            "bufferView" : 3,
            "componentType" : 5121,
            "count" : 243,
            "max" : [
                132
            ],
            "min" : [
                0
            ],
            "type" : "SCALAR"
        },
        {
            "bufferView" : 4,
            "componentType" : 5126,
            "count" : 133,
            "max" : [
                0.0,
                41.00965881347656,
                39.157310485839844
            ],
            "min" : [
                -19.279571533203125,
                9.5367431640625e-07,
                -39.157310485839844
            ],
            "type" : "VEC3"
        },
        {
            "bufferView" : 5,
            "componentType" : 5126,
            "count" : 133,
            "max" : [
                1.0,
                1.0,
                1.0
            ],
            "min" : [
                -1.0,
                -1.0,
                -1.0
            ],
            "type" : "VEC3"
        },
        {
            "bufferView" : 6,
            "componentType" : 5126,
            "count" : 133,
            "max" : [
                0.6692709922790527,
                1.0
            ],
            "min" : [
                0.0,
                0.25
            ],
            "type" : "VEC2"
        },
        {
            "bufferView" : 7,
            "componentType" : 5123,
            "count" : 2514,
            "max" : [
                1707
            ],
            "min" : [
                0
            ],
            "type" : "SCALAR"
        },
        {
            "bufferView" : 8,
            "componentType" : 5126,
            "count" : 1708,
            "max" : [
                27.399999618530273,
                14.221123695373535,
                -0.0001849999971454963
            ],
            "min" : [
                -27.399999618530273,
                -14.220812797546387,
                -2.769814968109131
            ],
            "type" : "VEC3"
        },
        {
            "bufferView" : 9,
            "componentType" : 5126,
            "count" : 1708,
            "max" : [
                1.0,
                1.0,
                1.0
            ],
            "min" : [
                -1.0,
                -1.0,
                -1.0
            ],
            "type" : "VEC3"
        },
        {
            "bufferView" : 10,
            "componentType" : 5126,
            "count" : 1708,
            "max" : [
                1.0,
                0.0021284609101712704,
                0.9238800406455994,
                1.0
            ],
            "min" : [
                0.3826814293861389,
                -0.002129119588062167,
                -0.9238803386688232,
                -1.0
            ],
            "type" : "VEC4"
        },
        {
            "bufferView" : 11,
            "componentType" : 5126,
            "count" : 1708,
            "max" : [
                0.7304289937019348,
                0.6315630078315735
            ],
            "min" : [
                0.2878049910068512,
                0.13097399473190308
            ],
            "type" : "VEC2"
        },
        {
            "bufferView" : 12,
            "componentType" : 5121,
            "count" : 300,
            "max" : [
                201
            ],
            "min" : [
                0
            ],
            "type" : "SCALAR"
        },
        {
            "bufferView" : 13,
            "componentType" : 5126,
            "count" : 202,
            "max" : [
                8.215330123901367,
                55.54229736328125,
                38.261749267578125
            ],
            "min" : [
                -17.778182983398438,
                16.01051139831543,
                -38.261749267578125
            ],
            "type" : "VEC3"
        },
        {
            "bufferView" : 14,
            "componentType" : 5126,
            "count" : 202,
            "max" : [
                1.0,
                1.0,
                1.0
            ],
            "min" : [
                -1.0,
                -1.0,
                -1.0
            ],
            "type" : "VEC3"
        },
        {
            "bufferView" : 15,
            "componentType" : 5126,
            "count" : 202,
            "max" : [
                1.0,
                1.0,
                1.0,
                1.0
            ],
            "min" : [
                -1.0,
                -1.0,
                -1.0,
                -1.0
            ],
            "type" : "VEC4"
        },
        {
            "bufferView" : 16,
            "componentType" : 5126,
            "count" : 202,
            "max" : [
                1.0,
                1.0
            ],
            "min" : [
                0.0,
                0.0
            ],
            "type" : "VEC2"
        },
        {
            "bufferView" : 17,
            "componentType" : 5123,
            "count" : 636,
            "max" : [
                319
            ],
            "min" : [
                0
            ],
            "type" : "SCALAR"
        },
        {
            "bufferView" : 18,
            "componentType" : 5126,
            "count" : 320,
            "max" : [
                1.0000004768371582,
                1.0,
                1.0
            ],
            "min" : [
                -1.0000007152557373,
                -1.0,
                -1.0
            ],
            "type" : "VEC3"
        },
        {
            "bufferView" : 19,
            "componentType" : 5126,
            "count" : 320,
            "max" : [
                1.0,
                1.0,
                1.0
            ],
            "min" : [
                -1.0,
                -1.0,
                -1.0
            ],
            "type" : "VEC3"
        },
        {
            "bufferView" : 20,
            "componentType" : 5126,
            "count" : 240,
            "max" : [
                9.958333333333334
            ],
            "min" : [
                0.0
            ],
            "type" : "SCALAR"
        },
        {
            "bufferView" : 21,
            "componentType" : 5126,
            "count" : 240,
            "max" : [
                0.0,
                0.0,
                -0.0,
                1.0
            ],
            "min" : [
                0.0,
                0.0,
                -0.3826834559440613,
                0.9238795638084412
            ],
            "type" : "VEC4"
        },
        {
            "bufferView" : 22,
            "componentType" : 5126,
            "count" : 240,
            "max" : [
                9.958333333333334
            ],
            "min" : [
                0.0
            ],
            "type" : "SCALAR"
        },
        {
            "bufferView" : 23,
            "componentType" : 5126,
            "count" : 240,
            "max" : [
                6.567293167114258,
                52.21730041503906,
                -2.2795770168304443
            ],
            "min" : [
                6.139151096343994,
                -3.045196533203125,
                -2.2795801162719727
            ],
            "type" : "VEC3"
        }
    ],
    "animations" : [
        {
            "channels" : [
                {
                    "sampler" : 0,
                    "target" : {
                        "node" : 6,
                        "path" : "rotation"
                    }
                }
            ],
            "name" : "open&close",
            "samplers" : [
                {
                    "input" : 20,
                    "interpolation" : "LINEAR",
                    "output" : 21
                }
            ]
        },
        {
            "channels" : [
                {
                    "sampler" : 0,
                    "target" : {
                        "node" : 7,
                        "path" : "translation"
                    }
                }
            ],
            "name" : "iPhoneAction",
            "samplers" : [
                {
                    "input" : 22,
                    "interpolation" : "LINEAR",
                    "output" : 23
                }
            ]
        }
    ],
    "asset" : {
        "generator" : "Khronos Blender glTF 2.0 exporter",
        "version" : "2.0"
    },
    "bufferViews" : [
        {
            "buffer" : 0,
            "byteLength" : 936,
            "byteOffset" : 0,
            "target" : 34963
        },
        {
            "buffer" : 0,
            "byteLength" : 3360,
            "byteOffset" : 936,
            "target" : 34962
        },
        {
            "buffer" : 0,
            "byteLength" : 3360,
            "byteOffset" : 4296,
            "target" : 34962
        },
        {
            "buffer" : 0,
            "byteLength" : 243,
            "byteOffset" : 7656,
            "target" : 34963
        },
        {
            "buffer" : 0,
            "byteLength" : 1596,
            "byteOffset" : 7900,
            "target" : 34962
        },
        {
            "buffer" : 0,
            "byteLength" : 1596,
            "byteOffset" : 9496,
            "target" : 34962
        },
        {
            "buffer" : 0,
            "byteLength" : 1064,
            "byteOffset" : 11092,
            "target" : 34962
        },
        {
            "buffer" : 0,
            "byteLength" : 5028,
            "byteOffset" : 12156,
            "target" : 34963
        },
        {
            "buffer" : 0,
            "byteLength" : 20496,
            "byteOffset" : 17184,
            "target" : 34962
        },
        {
            "buffer" : 0,
            "byteLength" : 20496,
            "byteOffset" : 37680,
            "target" : 34962
        },
        {
            "buffer" : 0,
            "byteLength" : 27328,
            "byteOffset" : 58176,
            "target" : 34962
        },
        {
            "buffer" : 0,
            "byteLength" : 13664,
            "byteOffset" : 85504,
            "target" : 34962
        },
        {
            "buffer" : 0,
            "byteLength" : 300,
            "byteOffset" : 99168,
            "target" : 34963
        },
        {
            "buffer" : 0,
            "byteLength" : 2424,
            "byteOffset" : 99468,
            "target" : 34962
        },
        {
            "buffer" : 0,
            "byteLength" : 2424,
            "byteOffset" : 101892,
            "target" : 34962
        },
        {
            "buffer" : 0,
            "byteLength" : 3232,
            "byteOffset" : 104316,
            "target" : 34962
        },
        {
            "buffer" : 0,
            "byteLength" : 1616,
            "byteOffset" : 107548,
            "target" : 34962
        },
        {
            "buffer" : 0,
            "byteLength" : 1272,
            "byteOffset" : 109164,
            "target" : 34963
        },
        {
            "buffer" : 0,
            "byteLength" : 3840,
            "byteOffset" : 110436,
            "target" : 34962
        },
        {
            "buffer" : 0,
            "byteLength" : 3840,
            "byteOffset" : 114276,
            "target" : 34962
        },
        {
            "buffer" : 0,
            "byteLength" : 960,
            "byteOffset" : 118116
        },
        {
            "buffer" : 0,
            "byteLength" : 3840,
            "byteOffset" : 119076
        },
        {
            "buffer" : 0,
            "byteLength" : 960,
            "byteOffset" : 122916
        },
        {
            "buffer" : 0,
            "byteLength" : 2880,
            "byteOffset" : 123876
        }
    ],
    "buffers" : [
        {
            "byteLength" : 126756,
            "uri" : "Cardboard-extended-phone-bezier2.bin"
        }
    ],
    "images" : [
        {
            "name" : "1327 iPhone",
            "uri" : "1327 iPhone.png"
        }
    ],
    "materials" : [
        {
            "name" : "blinn10SG",
            "pbrMetallicRoughness" : {
                "baseColorFactor" : [
                    0.1899999976158142,
                    0.09000000357627869,
                    0.05999999865889549,
                    1.0
                ],
                "metallicFactor" : 0.0
            }
        },
        {
            "alphaMode" : "BLEND",
            "name" : "blinn5SG",
            "pbrMetallicRoughness" : {
                "baseColorFactor" : [
                    0.009999999776482582,
                    0.009999999776482582,
                    0.009999999776482582,
                    0.0
                ],
                "metallicFactor" : 0.0
            }
        },
        {
            "alphaMode" : "BLEND",
            "name" : "blinn6SG",
            "pbrMetallicRoughness" : {
                "baseColorFactor" : [
                    1.0,
                    1.0,
                    1.0,
                    0.0
                ],
                "metallicFactor" : 0.0
            }
        },
        {
            "alphaMode" : "BLEND",
            "name" : "Glass",
            "pbrMetallicRoughness" : {
                "baseColorFactor" : [
                    0.6000000089406967,
                    0.6000000089406967,
                    0.6000000089406967,
                    0.15000000596046448
                ],
                "metallicFactor" : 0.0
            }
        },
        {
            "name" : "Mat",
            "pbrMetallicRoughness" : {
                "baseColorFactor" : [
                    0.6400000190734865,
                    0.6400000190734865,
                    0.6400000190734865,
                    1.0
                ],
                "baseColorTexture" : {
                    "index" : 0
                },
                "metallicFactor" : 0.0
            }
        }
    ],
    "meshes" : [
        {
            "name" : "Cylinder",
            "primitives" : [
                {
                    "attributes" : {
                        "NORMAL" : 2,
                        "POSITION" : 1
                    },
                    "indices" : 0,
                    "material" : 3
                }
            ]
        },
        {
            "name" : "Google:pCube58.001",
            "primitives" : [
                {
                    "attributes" : {
                        "NORMAL" : 5,
                        "POSITION" : 4,
                        "TEXCOORD_0" : 6
                    },
                    "indices" : 3,
                    "material" : 0
                }
            ]
        },
        {
            "name" : "iPhone",
            "primitives" : [
                {
                    "attributes" : {
                        "NORMAL" : 9,
                        "POSITION" : 8,
                        "TANGENT" : 10,
                        "TEXCOORD_0" : 11
                    },
                    "indices" : 7,
                    "material" : 4
                }
            ]
        },
        {
            "name" : "Google:pCube58",
            "primitives" : [
                {
                    "attributes" : {
                        "NORMAL" : 14,
                        "POSITION" : 13,
                        "TANGENT" : 15,
                        "TEXCOORD_0" : 16
                    },
                    "indices" : 12,
                    "material" : 0
                }
            ]
        },
        {
            "name" : "Cube",
            "primitives" : [
                {
                    "attributes" : {
                        "NORMAL" : 19,
                        "POSITION" : 18
                    },
                    "indices" : 17,
                    "material" : 0
                }
            ]
        }
    ],
    "nodes" : [
        {
            "name" : "Camera",
            "rotation" : [
                0.483536034822464,
                0.33687159419059753,
                -0.20870360732078552,
                0.7804827094078064
            ],
            "translation" : [
                55.10343551635742,
                12.284269332885742,
                19.624486923217773
            ]
        },
        {
            "mesh" : 4,
            "name" : "Cube",
            "scale" : [
                2.1936182975769043,
                19.153690338134766,
                38.156288146972656
            ],
            "translation" : [
                -0.038648322224617004,
                -3.289126396179199,
                -2.3355040550231934
            ]
        },
        {
            "mesh" : 0,
            "name" : "Cylinder",
            "rotation" : [
                0.0,
                0.0,
                -0.7071068286895752,
                0.7071068286895752
            ],
            "scale" : [
                9.340880393981934,
                9.340880393981934,
                9.340880393981934
            ],
            "translation" : [
                -11.59884262084961,
                -4.9381303787231445,
                -19.52318572998047
            ]
        },
        {
            "mesh" : 0,
            "name" : "Cylinder.001",
            "rotation" : [
                0.0,
                0.0,
                -0.7071068286895752,
                0.7071068286895752
            ],
            "scale" : [
                9.340880393981934,
                9.340880393981934,
                9.340880393981934
            ],
            "translation" : [
                -11.59884262084961,
                -4.9381303787231445,
                -19.52318572998047
            ]
        },
        {
            "mesh" : 0,
            "name" : "Cylinder.002",
            "rotation" : [
                0.0,
                0.0,
                -0.7071068286895752,
                0.7071068286895752
            ],
            "scale" : [
                9.340880393981934,
                9.340880393981934,
                9.340880393981934
            ],
            "translation" : [
                -12.242341995239258,
                -5.113447666168213,
                15.028400421142578
            ]
        },
        {
            "mesh" : 3,
            "name" : "Google:pCube58",
            "translation" : [
                0.0,
                -38.71876525878906,
                -2.32647705078125
            ]
        },
        {
            "mesh" : 1,
            "name" : "Google:pCube58.001",
            "translation" : [
                8.275934219360352,
                -22.316802978515625,
                -2.326477289199829
            ]
        },
        {
            "mesh" : 2,
            "name" : "iPhone",
            "rotation" : [
                -0.7071067690849304,
                -0.00017374477465637028,
                -0.7071067690849304,
                -0.00017377568292431533
            ],
            "scale" : [
                1.2041711807250977,
                1.2041711807250977,
                1.2041711807250977
            ],
            "translation" : [
                6.5708909034729,
                52.217262268066406,
                -2.2795770168304443
            ]
        },
        {
            "name" : "Lamp",
            "rotation" : [
                0.16907575726509094,
                0.7558802962303162,
                -0.27217137813568115,
                0.570947527885437
            ],
            "scale" : [
                1.0,
                1.0,
                0.9999999403953552
            ],
            "translation" : [
                68.42555236816406,
                11.102436065673828,
                -1.0054539442062378
            ]
        }
    ],
    "samplers" : [
        {}
    ],
    "scene" : 0,
    "scenes" : [
        {
            "name" : "Scene",
            "nodes" : [
                7,
                4,
                3,
                2,
                1,
                6,
                5,
                8,
                0
            ]
        }
    ],
    "textures" : [
        {
            "sampler" : 0,
            "source" : 0
        }
    ]
}
