# Blender v2.79 (sub 0) OBJ File: 'Cardboard.blend'
# www.blender.org
mtllib Cardboard.mtl
o Google:pCube58
v 84.750221 17.303341 36.830833
v 104.029793 17.303341 36.830833
v 104.029793 17.303341 -41.483788
v 84.750221 17.303341 -41.483788
v 104.029793 -23.706318 36.830833
v 84.750221 -23.706318 36.830833
v 84.750221 17.268734 -41.483788
v 104.029793 -23.706318 -2.326477
v 84.750221 17.303341 -40.341160
v 104.029793 -14.657820 -22.551641
v 104.029793 8.254841 -22.551641
v 84.750221 -23.706318 -40.195847
v 102.073051 -23.706318 -40.195847
v 104.029793 -23.706318 -41.483788
v 104.029793 -14.657820 -36.115429
v 102.791756 -14.657820 -22.551641
v 102.791756 -14.657820 -36.115429
v 102.791756 8.254841 -22.551641
v 102.791756 8.254841 -36.115429
v 104.029793 8.254841 -36.115429
v 84.750221 -23.706318 -41.483788
v 1.874756 -22.708254 -40.588226
v -17.778183 -22.708254 -40.588226
v -17.778183 15.905323 -40.588226
v 1.874756 15.905323 -40.588226
v -17.778183 15.905323 33.423599
v 1.874756 15.905323 35.935272
v -11.040695 15.905323 16.629190
v -17.778183 15.905323 35.935272
v -17.778183 -22.708254 35.935272
v 1.874756 -22.708254 35.935272
v -2.157684 -22.708254 33.423599
v -2.157684 -22.708254 8.862505
v 1.874756 -22.708254 8.862505
v -2.157684 13.701324 33.423599
v -2.157684 13.701324 7.519657
v 1.874756 -6.745731 -4.635223
v -2.157684 -6.745731 -4.635223
v -2.157684 -22.708254 -13.515451
v 1.874756 -22.708254 -13.515451
v 1.874756 15.905323 -2.326475
v -11.040695 15.905323 -21.282135
v -7.957306 15.905323 -2.326477
v -2.157684 13.701324 -12.172604
v -2.157684 13.701324 -2.326475
v -2.157684 -22.708254 -38.076553
v -17.778183 15.905323 -38.076553
v -2.157684 13.701324 -38.076553
v -2.157684 -6.745731 -0.017727
v 1.874756 -6.745731 -0.017727
v -17.778183 -22.708254 -38.076553
v -17.778183 13.701324 -38.076553
v -17.778183 13.701324 33.423599
v -17.778183 -22.708254 33.423599
v -11.040695 13.701324 16.629190
v -11.040695 13.701324 -21.282135
v -7.957306 13.701324 -2.326477
v -2.019714 -14.175694 -16.650974
v -2.019714 -12.804371 -13.959602
v -3.361801 -10.186041 -15.861927
v -3.361801 -11.097662 -17.651089
v -2.019714 -10.668484 -11.823719
v -3.361801 -8.766157 -14.442047
v -2.019714 -7.977112 -10.452396
v -3.361801 -6.976999 -13.530426
v -2.019714 -4.993702 -9.979870
v -3.361801 -4.993702 -13.216305
v -2.019714 -2.010296 -10.452396
v -3.361801 -3.010406 -13.530426
v -2.019714 0.681076 -11.823719
v -3.361801 -1.221249 -14.442047
v -2.019714 2.816963 -13.959606
v -3.361801 0.198631 -15.861931
v -2.019714 4.188282 -16.650974
v -3.361801 1.110252 -17.651089
v -2.019714 4.660809 -19.634384
v -3.361801 1.424377 -19.634380
v -2.019714 4.188282 -22.617794
v -3.361801 1.110252 -21.617680
v -2.019714 2.816959 -25.309162
v -3.361801 0.198631 -23.406834
v -2.019714 0.681076 -27.445042
v -3.361801 -1.221249 -24.826717
v -2.019714 -2.010296 -28.816364
v -3.361801 -3.010406 -25.738338
v -2.019714 -4.993702 -29.288898
v -3.361801 -4.993702 -26.052464
v -2.019714 -7.977110 -28.816364
v -3.361801 -6.976997 -25.738338
v -2.019714 -10.668482 -27.445042
v -3.361801 -8.766155 -24.826717
v -2.019714 -12.804365 -25.309162
v -3.361801 -10.186037 -23.406834
v -2.019714 -14.175688 -22.617790
v -3.361801 -11.097658 -21.617680
v -2.019714 -14.648212 -19.634384
v -3.361801 -11.411779 -19.634380
v -4.112579 -4.993702 -19.634384
v -2.019714 -14.175694 17.642502
v -2.019714 -12.804371 20.333878
v -3.361801 -10.186041 18.431549
v -3.361801 -11.097662 16.642380
v -2.019714 -10.668484 22.469757
v -3.361801 -8.766157 19.851425
v -2.019714 -7.977112 23.841080
v -3.361801 -6.976999 20.763046
v -2.019714 -4.993702 24.313599
v -3.361801 -4.993702 21.077164
v -2.019714 -2.010296 23.841080
v -3.361801 -3.010406 20.763046
v -2.019714 0.681076 22.469757
v -3.361801 -1.221249 19.851425
v -2.019714 2.816963 20.333862
v -3.361801 0.198631 18.431549
v -2.019714 4.188282 17.642502
v -3.361801 1.110252 16.642380
v -2.019714 4.660809 14.659088
v -3.361801 1.424377 14.659088
v -2.019714 4.188282 11.675690
v -3.361801 1.110252 12.675797
v -2.019714 2.816959 8.984314
v -3.361801 0.198631 10.886642
v -2.019714 0.681076 6.848434
v -3.361801 -1.221249 9.466751
v -2.019714 -2.010296 5.477112
v -3.361801 -3.010406 8.555130
v -2.019714 -4.993702 5.004578
v -3.361801 -4.993702 8.241013
v -2.019714 -7.977110 5.477112
v -3.361801 -6.976997 8.555130
v -2.019714 -10.668482 6.848434
v -3.361801 -8.766155 9.466751
v -2.019714 -12.804365 8.984314
v -3.361801 -10.186037 10.886642
v -2.019714 -14.175688 11.675690
v -3.361801 -11.097658 12.675797
v -2.019714 -14.648212 14.659088
v -3.361801 -11.411779 14.659088
v -4.112579 -4.993702 14.659088
v -3.892502 14.987122 16.309195
v -7.675339 14.987122 16.309195
v -7.675339 16.823532 16.309195
v -3.892502 16.823532 16.309195
v -7.675339 16.823532 28.047178
v -3.892502 16.823532 28.047178
v -7.675339 14.987122 28.047178
v -3.892502 14.987122 28.047178
v -3.892502 14.987122 -32.128319
v -7.675339 14.987122 -32.128319
v -7.675339 16.823532 -32.128319
v -3.892502 16.823532 -32.128319
v -7.675339 16.823532 -20.390335
v -3.892502 16.823532 -20.390335
v -7.675339 14.987122 -20.390335
v -3.892502 14.987122 -20.390335
v -0.038651 -20.393297 -11.697060
v -12.707886 -20.393297 -38.251060
v -12.707886 -22.597300 -38.251060
v -0.038651 -22.597300 -11.697060
v -12.707886 -20.393297 33.598106
v -0.038651 -20.393297 7.044094
v -0.038651 -22.597300 7.044094
v -12.707886 -22.597300 33.598106
v 5.297211 -22.597300 -38.251060
v 5.297409 -22.597300 -21.374672
v 5.297409 -22.597300 16.721708
v 5.297211 -22.597300 33.598106
v 5.297409 -20.393297 -21.374672
v 5.297211 -20.393297 -38.251060
v 5.297211 -20.393297 33.598106
v 5.297409 -20.393297 16.721708
v 104.029793 17.303341 -40.207355
v 102.742775 -23.706318 35.601391
v 84.750221 -23.706318 35.601391
v 84.750221 17.303341 35.575905
v 104.029793 17.303341 35.716434
v 84.750221 16.181229 -40.268501
v 84.750221 16.067863 35.588646
v 102.303787 15.788620 -40.201599
v 102.742775 15.836391 35.658913
vt 0.375000 0.312500
vt 0.387500 0.312500
vt 0.387500 0.688440
vt 0.375000 0.688440
vt 0.400000 0.312500
vt 0.400000 0.688440
vt 0.412500 0.312500
vt 0.412500 0.688440
vt 0.425000 0.312500
vt 0.425000 0.688440
vt 0.437500 0.312500
vt 0.437500 0.688440
vt 0.450000 0.312500
vt 0.450000 0.688440
vt 0.462500 0.312500
vt 0.462500 0.688440
vt 0.475000 0.312500
vt 0.475000 0.688440
vt 0.487500 0.312500
vt 0.487500 0.688440
vt 0.500000 0.312500
vt 0.500000 0.688440
vt 0.512500 0.312500
vt 0.512500 0.688440
vt 0.525000 0.312500
vt 0.525000 0.688440
vt 0.537500 0.312500
vt 0.537500 0.688440
vt 0.550000 0.312500
vt 0.550000 0.688440
vt 0.562500 0.312500
vt 0.562500 0.688440
vt 0.575000 0.312500
vt 0.575000 0.688440
vt 0.587500 0.312500
vt 0.587500 0.688440
vt 0.600000 0.312500
vt 0.600000 0.688440
vt 0.612500 0.312500
vt 0.612500 0.688440
vt 0.625000 0.312500
vt 0.625000 0.688440
vt 0.648603 0.892034
vt 0.626409 0.935591
vt 0.500000 0.837500
vt 0.591841 0.970159
vt 0.548284 0.992353
vt 0.500000 1.000000
vt 0.451716 0.992353
vt 0.408159 0.970159
vt 0.373591 0.935591
vt 0.351397 0.892034
vt 0.343750 0.843750
vt 0.351397 0.795466
vt 0.373591 0.751909
vt 0.408159 0.717341
vt 0.451716 0.695147
vt 0.500000 0.687500
vt 0.548284 0.695147
vt 0.591842 0.717341
vt 0.626409 0.751908
vt 0.648603 0.795466
vt 0.656250 0.843750
vt 0.375000 0.312500
vt 0.387500 0.312500
vt 0.387500 0.688440
vt 0.375000 0.688440
vt 0.400000 0.312500
vt 0.400000 0.688440
vt 0.412500 0.312500
vt 0.412500 0.688440
vt 0.425000 0.312500
vt 0.425000 0.688440
vt 0.437500 0.312500
vt 0.437500 0.688440
vt 0.450000 0.312500
vt 0.450000 0.688440
vt 0.462500 0.312500
vt 0.462500 0.688440
vt 0.475000 0.312500
vt 0.475000 0.688440
vt 0.487500 0.312500
vt 0.487500 0.688440
vt 0.500000 0.312500
vt 0.500000 0.688440
vt 0.512500 0.312500
vt 0.512500 0.688440
vt 0.525000 0.312500
vt 0.525000 0.688440
vt 0.537500 0.312500
vt 0.537500 0.688440
vt 0.550000 0.312500
vt 0.550000 0.688440
vt 0.562500 0.312500
vt 0.562500 0.688440
vt 0.575000 0.312500
vt 0.575000 0.688440
vt 0.587500 0.312500
vt 0.587500 0.688440
vt 0.600000 0.312500
vt 0.600000 0.688440
vt 0.612500 0.312500
vt 0.612500 0.688440
vt 0.625000 0.312500
vt 0.625000 0.688440
vt 0.648603 0.892034
vt 0.626409 0.935591
vt 0.500000 0.837500
vt 0.591841 0.970159
vt 0.548284 0.992353
vt 0.500000 1.000000
vt 0.451716 0.992353
vt 0.408159 0.970159
vt 0.373591 0.935591
vt 0.351397 0.892034
vt 0.343750 0.843750
vt 0.351397 0.795466
vt 0.373591 0.751909
vt 0.408159 0.717341
vt 0.451716 0.695147
vt 0.500000 0.687500
vt 0.548284 0.695147
vt 0.591842 0.717341
vt 0.626409 0.751908
vt 0.648603 0.795466
vt 0.656250 0.843750
vt 0.625000 0.562500
vt 0.375000 0.562500
vt 0.365234 0.488932
vt 0.355469 0.415365
vt 0.335938 0.268229
vt 0.669271 0.273438
vt 0.647135 0.417969
vt 0.636068 0.490234
vt 0.187500 0.000000
vt 0.125000 0.000000
vt 0.257813 0.000000
vt 0.230469 0.227865
vt 0.177734 0.207682
vt 0.125000 0.187500
vt 0.156250 0.187500
vt 0.375000 0.000000
vt 0.375000 0.000000
vt 0.187500 0.000000
vt 0.375000 0.000000
vt 0.187500 0.187500
vt 0.375000 0.187500
vt 0.375000 0.187500
vt 0.625000 0.750000
vt 0.375000 0.750000
vt 0.625000 0.000000
vt 0.375000 0.000000
vt 0.625000 0.000000
vt 0.636068 0.208984
vt 0.375000 0.000000
vt 0.625000 0.000000
vt 0.625000 0.250000
vt 0.371094 0.259766
vt 0.625000 0.500000
vt 0.375000 0.476563
vt 0.625000 0.406250
vt 0.625000 0.500000
vt 0.625000 0.750000
vt 0.375000 0.750000
vt 0.625000 0.750000
vt 0.625000 0.843750
vt 0.375000 0.843750
vt 0.781250 0.000000
vt 0.875000 0.000000
vt 0.875000 0.250000
vt 0.781250 0.250000
vt 0.171875 0.250000
vt 0.125000 0.000000
vt 0.218750 0.000000
vt 0.375000 0.882328
vt 0.625000 0.882328
vt 0.625000 0.906250
vt 0.375000 0.906250
vt 0.250000 0.155597
vt 0.257328 0.000000
vt 0.281250 0.000000
vt 0.625000 0.343750
vt 0.625000 0.375000
vt 0.375000 0.375000
vt 0.718750 0.250000
vt 0.718750 0.000000
vt 0.742672 0.000000
vt 0.750000 0.155597
vt 0.375000 1.000000
vt 0.625000 1.000000
vt 0.625000 0.250000
vt 0.625000 0.000000
vt 0.625000 0.250000
vt 0.625000 0.867672
vt 0.375000 0.867672
vt 0.242672 0.000000
vt 0.757328 0.000000
vt 0.625000 0.875000
vt 0.375000 0.875000
vt 0.625000 0.000000
vt 0.625000 0.250000
vt 0.625000 0.500000
vt 0.625000 0.750000
vt 0.625000 0.406250
vt 0.625000 0.343750
vt 0.625000 0.375000
vt 0.625000 0.500000
vt 0.625000 0.406250
vt 0.625000 0.343750
vt 0.625000 0.375000
vt 0.375000 0.000000
vt 0.625000 0.000000
vt 0.625000 0.250000
vt 0.375000 0.250000
vt 0.625000 0.500000
vt 0.375000 0.500000
vt 0.625000 0.750000
vt 0.375000 0.750000
vt 0.625000 1.000000
vt 0.375000 1.000000
vt 0.875000 0.000000
vt 0.875000 0.250000
vt 0.125000 0.000000
vt 0.125000 0.250000
vt 0.375000 0.000000
vt 0.625000 0.000000
vt 0.625000 0.250000
vt 0.375000 0.250000
vt 0.625000 0.500000
vt 0.375000 0.500000
vt 0.625000 0.750000
vt 0.375000 0.750000
vt 0.625000 1.000000
vt 0.375000 1.000000
vt 0.875000 0.000000
vt 0.875000 0.250000
vt 0.125000 0.000000
vt 0.125000 0.250000
vt 0.625000 0.406250
vt 0.625000 0.500000
vt 0.625000 0.500000
vt 0.625000 0.406250
vt 0.625000 0.250000
vt 0.625000 0.343750
vt 0.625000 0.343750
vt 0.625000 0.250000
vt 0.000000 0.000000
vt 1.000000 0.000000
vt 1.000000 1.000000
vt 0.000000 1.000000
vt 0.000000 0.000000
vt 1.000000 0.000000
vt 1.000000 1.000000
vt 0.000000 1.000000
vt 0.000000 0.000000
vt 1.000000 0.000000
vt 1.000000 1.000000
vt 0.000000 1.000000
vt 0.000000 0.000000
vt 1.000000 0.000000
vt 1.000000 1.000000
vt 0.000000 1.000000
vt 0.000000 0.000000
vt 1.000000 0.000000
vt 1.000000 1.000000
vt 0.000000 1.000000
vt 0.000000 0.000000
vt 1.000000 0.000000
vt 1.000000 1.000000
vt 0.000000 1.000000
vt 0.187500 0.000000
vt 0.000000 0.000000
vt 0.625000 0.750000
vt 0.375000 0.750000
vt 0.630534 0.620117
vt 0.000000 0.000000
vt 0.187500 0.375000
vt 0.000000 0.000000
vt 0.000000 0.000000
vt 0.000000 0.000000
vt 0.000000 0.000000
vn -0.9237 -0.3643 0.1184
vn -0.9237 -0.3099 0.2252
vn -0.9586 -0.2304 0.1674
vn -0.9586 -0.2708 0.0880
vn -0.9237 -0.2252 0.3099
vn -0.9586 -0.1674 0.2304
vn -0.9237 -0.1184 0.3643
vn -0.9586 -0.0880 0.2708
vn -0.9237 0.0000 0.3831
vn -0.9586 -0.0000 0.2848
vn -0.9237 0.1184 0.3643
vn -0.9586 0.0880 0.2708
vn -0.9237 0.2252 0.3099
vn -0.9586 0.1674 0.2304
vn -0.9237 0.3099 0.2252
vn -0.9586 0.2304 0.1674
vn -0.9237 0.3643 0.1184
vn -0.9586 0.2708 0.0880
vn -0.9237 0.3831 0.0000
vn -0.9586 0.2848 0.0000
vn -0.9237 0.3643 -0.1184
vn -0.9586 0.2708 -0.0880
vn -0.9237 0.3099 -0.2252
vn -0.9586 0.2304 -0.1674
vn -0.9237 0.2252 -0.3099
vn -0.9586 0.1674 -0.2304
vn -0.9237 0.1184 -0.3643
vn -0.9586 0.0880 -0.2708
vn -0.9237 0.0000 -0.3831
vn -0.9586 0.0000 -0.2848
vn -0.9237 -0.1184 -0.3643
vn -0.9586 -0.0880 -0.2708
vn -0.9237 -0.2252 -0.3099
vn -0.9586 -0.1674 -0.2304
vn -0.9237 -0.3099 -0.2252
vn -0.9586 -0.2304 -0.1674
vn -0.9237 -0.3643 -0.1184
vn -0.9586 -0.2708 -0.0880
vn -0.9237 -0.3831 -0.0000
vn -0.9586 -0.2848 -0.0000
vn -1.0000 0.0000 -0.0000
vn 0.0000 1.0000 0.0000
vn 1.0000 -0.0000 0.0000
vn 0.0000 -1.0000 0.0000
vn 0.0000 0.0000 1.0000
vn 0.0000 0.0000 -1.0000
vn 0.0000 -0.4862 0.8739
vn 0.0000 -0.4862 -0.8739
vn -0.9281 0.0000 -0.3723
vn -0.9870 0.0000 0.1606
vn -0.9281 0.0000 0.3723
vn -0.9870 0.0000 -0.1606
vn -0.9025 0.0000 0.4306
vn -0.9025 0.0000 -0.4306
vn -0.0020 0.0021 1.0000
vn 0.0021 0.0010 -1.0000
vn -1.0000 0.0029 0.0073
vn -0.0176 -0.9998 -0.0004
usemtl blinn6SG
s 1
f 58/1/1 59/2/2 60/3/3 61/4/4
f 59/2/2 62/5/5 63/6/6 60/3/3
f 62/5/5 64/7/7 65/8/8 63/6/6
f 64/7/7 66/9/9 67/10/10 65/8/8
f 66/9/9 68/11/11 69/12/12 67/10/10
f 68/11/11 70/13/13 71/14/14 69/12/12
f 70/13/13 72/15/15 73/16/16 71/14/14
f 72/15/15 74/17/17 75/18/18 73/16/16
f 74/17/17 76/19/19 77/20/20 75/18/18
f 76/19/19 78/21/21 79/22/22 77/20/20
f 78/21/21 80/23/23 81/24/24 79/22/22
f 80/23/23 82/25/25 83/26/26 81/24/24
f 82/25/25 84/27/27 85/28/28 83/26/26
f 84/27/27 86/29/29 87/30/30 85/28/28
f 86/29/29 88/31/31 89/32/32 87/30/30
f 88/31/31 90/33/33 91/34/34 89/32/32
f 90/33/33 92/35/35 93/36/36 91/34/34
f 92/35/35 94/37/37 95/38/38 93/36/36
f 94/37/37 96/39/39 97/40/40 95/38/38
f 96/39/39 58/41/1 61/42/4 97/40/40
f 61/43/4 60/44/3 98/45/41
f 60/44/3 63/46/6 98/45/41
f 63/46/6 65/47/8 98/45/41
f 65/47/8 67/48/10 98/45/41
f 67/48/10 69/49/12 98/45/41
f 69/49/12 71/50/14 98/45/41
f 71/50/14 73/51/16 98/45/41
f 73/51/16 75/52/18 98/45/41
f 75/52/18 77/53/20 98/45/41
f 77/53/20 79/54/22 98/45/41
f 79/54/22 81/55/24 98/45/41
f 81/55/24 83/56/26 98/45/41
f 83/56/26 85/57/28 98/45/41
f 85/57/28 87/58/30 98/45/41
f 87/58/30 89/59/32 98/45/41
f 89/59/32 91/60/34 98/45/41
f 91/60/34 93/61/36 98/45/41
f 93/61/36 95/62/38 98/45/41
f 95/62/38 97/63/40 98/45/41
f 97/63/40 61/43/4 98/45/41
f 99/64/1 100/65/2 101/66/3 102/67/4
f 100/65/2 103/68/5 104/69/6 101/66/3
f 103/68/5 105/70/7 106/71/8 104/69/6
f 105/70/7 107/72/9 108/73/10 106/71/8
f 107/72/9 109/74/11 110/75/12 108/73/10
f 109/74/11 111/76/13 112/77/14 110/75/12
f 111/76/13 113/78/15 114/79/16 112/77/14
f 113/78/15 115/80/17 116/81/18 114/79/16
f 115/80/17 117/82/19 118/83/20 116/81/18
f 117/82/19 119/84/21 120/85/22 118/83/20
f 119/84/21 121/86/23 122/87/24 120/85/22
f 121/86/23 123/88/25 124/89/26 122/87/24
f 123/88/25 125/90/27 126/91/28 124/89/26
f 125/90/27 127/92/29 128/93/30 126/91/28
f 127/92/29 129/94/31 130/95/32 128/93/30
f 129/94/31 131/96/33 132/97/34 130/95/32
f 131/96/33 133/98/35 134/99/36 132/97/34
f 133/98/35 135/100/37 136/101/38 134/99/36
f 135/100/37 137/102/39 138/103/40 136/101/38
f 137/102/39 99/104/1 102/105/4 138/103/40
f 102/106/4 101/107/3 139/108/41
f 101/107/3 104/109/6 139/108/41
f 104/109/6 106/110/8 139/108/41
f 106/110/8 108/111/10 139/108/41
f 108/111/10 110/112/12 139/108/41
f 110/112/12 112/113/14 139/108/41
f 112/113/14 114/114/16 139/108/41
f 114/114/16 116/115/18 139/108/41
f 116/115/18 118/116/20 139/108/41
f 118/116/20 120/117/22 139/108/41
f 120/117/22 122/118/24 139/108/41
f 122/118/24 124/119/26 139/108/41
f 124/119/26 126/120/28 139/108/41
f 126/120/28 128/121/30 139/108/41
f 128/121/30 130/122/32 139/108/41
f 130/122/32 132/123/34 139/108/41
f 132/123/34 134/124/36 139/108/41
f 134/124/36 136/125/38 139/108/41
f 136/125/38 138/126/40 139/108/41
f 138/126/40 102/106/4 139/108/41
usemtl blinn10SG
s off
f 1/127/42 2/128/42 176/129/42 172/130/42 3/131/42 4/132/42 9/133/42 175/134/42
f 10/135/43 5/136/43 8/137/43
f 3/131/43 172/138/43 176/139/43 2/140/43 11/141/43
f 10/135/43 8/137/43 14/142/43 15/143/43
f 16/144/42 10/135/42 15/143/42 17/145/42
f 11/141/44 18/146/44 19/147/44 20/148/44
f 3/131/43 11/141/43 20/148/43
f 2/128/45 1/127/45 6/149/45 5/150/45
f 11/141/43 2/140/43 5/136/43 10/135/43
f 18/146/46 11/141/46 10/135/46 16/144/46
f 15/143/45 20/148/45 19/147/45 17/145/45
f 14/142/43 3/131/43 20/148/43 15/143/43
f 14/142/46 21/151/46 4/132/46 3/131/46
f 21/151/44 14/142/44 13/152/44 12/153/44
f 21/151/41 12/153/41 177/154/41 9/133/41 4/132/41
f 22/155/46 23/156/46 24/157/46 25/158/46
f 26/159/42 27/160/42 28/161/42
f 27/160/45 29/162/45 30/163/45 31/164/45
f 31/164/44 32/165/44 33/166/44 34/167/44
f 33/168/41 32/169/41 35/170/41 36/171/41
f 27/172/43 31/173/43 34/174/43
f 37/175/47 38/176/47 39/177/47 40/178/47
f 41/179/43 37/180/43 40/181/43 25/158/43
f 25/158/42 42/182/42 43/183/42 41/184/42
f 44/185/41 39/186/41 38/187/41 45/188/41
f 22/189/44 40/178/44 39/177/44 46/190/44
f 25/158/43 40/181/43 22/155/43
f 42/182/42 25/158/42 47/191/42
f 46/192/41 39/186/41 44/185/41 48/193/41
f 34/167/48 33/166/48 49/194/48 50/195/48
f 27/172/43 34/174/43 50/196/43 41/179/43
f 41/184/42 43/183/42 28/161/42 27/160/42
f 45/188/41 49/197/41 33/168/41 36/171/41
f 49/194/44 38/176/44 37/175/44 50/195/44
f 49/194/41 45/198/41 38/176/41
f 50/195/43 37/175/43 41/199/43
f 22/155/44 46/192/44 23/156/44
f 51/200/41 52/201/41 24/157/41 23/156/41
f 47/191/42 25/158/42 24/157/42
f 27/160/42 26/159/42 29/162/42
f 53/202/41 54/203/41 30/163/41 29/162/41
f 32/165/44 31/164/44 30/163/44
f 55/204/49 53/202/49 26/159/49 28/161/49
f 56/205/50 57/206/50 43/183/50 42/182/50
f 52/201/51 56/205/51 42/182/51 47/191/51
f 57/206/52 55/204/52 28/161/52 43/183/52
f 24/157/41 52/201/41 47/191/41
f 53/202/41 29/162/41 26/159/41
f 46/192/45 48/193/45 52/201/45 51/200/45
f 23/156/44 46/192/44 51/200/44
f 35/207/46 32/165/46 54/203/46 53/202/46
f 32/165/44 30/163/44 54/203/44
f 36/208/44 35/207/44 53/202/44 55/204/44
f 44/209/44 45/210/44 57/206/44 56/205/44
f 48/193/44 44/209/44 56/205/44 52/201/44
f 45/210/44 36/208/44 55/204/44 57/206/44
f 140/211/46 141/212/46 142/213/46 143/214/46
f 143/214/42 142/213/42 144/215/42 145/216/42
f 145/216/45 144/215/45 146/217/45 147/218/45
f 147/218/44 146/217/44 141/219/44 140/220/44
f 141/212/41 146/221/41 144/222/41 142/213/41
f 147/223/43 140/211/43 143/214/43 145/224/43
f 148/225/46 149/226/46 150/227/46 151/228/46
f 151/228/42 150/227/42 152/229/42 153/230/42
f 153/230/45 152/229/45 154/231/45 155/232/45
f 155/232/44 154/231/44 149/233/44 148/234/44
f 149/226/41 154/235/41 152/236/41 150/227/41
f 155/237/43 148/225/43 151/228/43 153/238/43
f 156/239/53 157/240/53 158/241/53 159/242/53
f 160/243/54 161/244/54 162/245/54 163/246/54
f 159/247/44 158/248/44 164/249/44 165/250/44
f 163/251/44 162/252/44 166/253/44 167/254/44
f 157/255/42 156/256/42 168/257/42 169/258/42
f 158/259/46 157/260/46 169/261/46 164/262/46
f 161/263/42 160/264/42 170/265/42 171/266/42
f 160/267/45 163/268/45 167/269/45 170/270/45
f 12/153/55 13/152/55 179/271/55 172/272/55 9/133/55 177/154/55
f 5/150/44 6/149/44 174/273/44 173/274/44
f 1/127/41 175/134/41 178/275/41 174/273/41 6/149/41
f 174/273/56 178/275/56 175/134/56 176/276/56 180/277/56 173/274/56
f 178/278/41 175/279/41 9/280/41 177/281/41
f 13/152/57 173/274/57 180/277/57 179/271/57
f 14/142/44 5/150/44 173/274/44 13/152/44
f 178/278/58 177/281/58 179/271/58 180/277/58
usemtl blinn5SG
f 18/146/43 16/144/43 17/145/43 19/147/43
l 7 21
